<?xml version="1.0" standalone="no"?>
<!DOCTYPE svg PUBLIC "-//W3C//DTD SVG 1.1//EN" "http://www.w3.org/Graphics/SVG/1.1/DTD/svg11.dtd" >
<svg xmlns="http://www.w3.org/2000/svg">
<metadata>Generated by IcoMoon</metadata>
<defs>
<font id="FontAwesome" horiz-adv-x="1024">
<font-face units-per-em="1024" ascent="1024" descent="0" />
<missing-glyph horiz-adv-x="1024" />
<glyph unicode="&#x20;" horiz-adv-x="0" d="" />
<glyph unicode="&#x30;" glyph-name="zero" d="M585 951q-1 31-21.5 51.5t-51.5 20.5-51.5-20.5-21.5-51.5v-585q1-31 21.5-52t51.5-21 51.5 21 21.5 52v585zM512 0q55 3 79.5 46t-0.5 91q-12 22-33 34t-46 12q-54-3-79-46t0-91q12-22 33-34t46-12v0z" />
<glyph unicode="&#x31;" glyph-name="one" d="M410 921q3 61 51 89t102 0q24-14 37.5-37.5t14.5-51.5q-4-60-52-88t-102 0q-24 14-37.5 37.5t-13.5 50.5v0zM308 614q0 29 19.5 48.5t48.5 20.5h136q29-1 48.5-20.5t20.5-48.5v-477h68q29-1 48-20.5t19-48.5-19-48-48-20h-273q-29 1-48.5 20t-19.5 48 19.5 48.5 48.5 20.5h68v409h-68q-29 1-48.5 20t-19.5 48v0z" />
<glyph unicode="&#x32;" glyph-name="two" d="M513 1q304 16 442.5 255.5t-0.5 511.5q-70 120-187 187t-255 68q-305-16-443.5-255.5t0.5-510.5q70-120 187-187.5t256-68.5v0zM513 768q20-1 33.5-14.5t13.5-33.5v-224q0-20-13.5-33.5t-34-13.5-34 13.5-13.5 33.5v224q0 20 13.5 33.5t34.5 14.5v0zM449 321q2 38 32 55t63 0q15-9 23.5-23.5t8.5-31.5q-2-39-32-56t-63 0q-15 9-23.5 23.5t-8.5 32.5v0z" />
<glyph unicode="&#x33;" glyph-name="three" d="M450 905q8 16 3 32.5t-21 24.5-32.5 3-24.5-21l-166-318h-152q-24-1-40-17t-16-40 16-40 40-17l92-369q10-38 40.5-61.5t70.5-24.5h504q40 1 70.5 24.5t40.5 61.5l92 369q24 1 40 17t16 40-16 40-40 17h-152l-166 318q-8 16-24.5 21t-32.5-3-21-24.5 3-32.5l145-279h-414l145 279zM341 427v-171q0-12-8-20t-20-8-20 8-9 20v171q1 12 9 20t20 8 20-8 8-20v0zM512 455q12 0 20-8t8-20v-171q0-12-8-20t-20-8-20 8-8 20v171q0 12 8 20t20 8v0zM740 427v-171q-1-12-9-20t-20-8-20 8-8 20v171q0 12 8 20t20 8 20-8 9-20v0z" />
<glyph unicode="&#x34;" glyph-name="four" d="M513 1q304 16 442.5 255.5t-0.5 511.5q-70 120-187 187t-255 68q-305-16-443.5-255.5t0.5-510.5q70-120 187-187.5t256-68.5v0zM433 352h48v128h-48q-21 1-34.5 14.5t-13.5 34 13.5 34 34.5 13.5h95q21 0 34.5-13.5t13.5-34.5v-176h16q21 0 34.5-13.5t13.5-34-13.5-34-34.5-13.5h-159q-21 0-34.5 13.5t-13.5 34 13.5 34 34.5 13.5v0zM513 768q38-2 55-32t0-64q-9-15-23.5-23.5t-31.5-8.5q-39 2-56 32t0 64q9 15 23.5 23.5t32.5 8.5v0z" />
<glyph unicode="&#x49;" glyph-name="I" d="M622 558q5-23 5-53-2-140-84.5-225.5t-222.5-87.5q-136 3-226.5 93.5t-93.5 226.5q3 136 93.5 226.5t226.5 93.5q65 0 118.5-22t95.5-62l-87-83q-17 18-48.5 33t-78.5 16q-84-2-140-59t-58-143q2-86 58-143t140-59q94 4 135.5 51.5t46.5 86.5h-182v110h302zM931 547v93h-93v-93h-93v-93h93v-93h93v93h93v93h-93z" />
<glyph unicode="&#x4c;" glyph-name="L" d="M399 410q-21 0-35.5 14.5t-14.5 36.5 14.5 36 36 14 36-14 14.5-36-14.5-36.5-36.5-14.5v0zM1024 512q-5-218-149.5-362.5t-362.5-149.5q-218 5-362.5 149.5t-149.5 362.5q5 218 149.5 362.5t362.5 149.5q218-5 362.5-149.5t149.5-362.5v0zM751 597q-30-1-49-21-35 25-80.5 39t-97.5 16l36 162 114-26q1-21 15.5-35.5t36-14.5 36 14.5 14.5 36-14.5 36.5-36.5 15q-15 0-27-8t-19-20l-126 28q-5 1-9-2t-5-7l-40-179q-51-2-96-16.5t-80-38.5q-20 20-50 21-55-5-66.5-52.5t36.5-77.5q-3-15-3-32 3-83 80-138.5t192-57.5q117 2 194 57.5t80 138.5q0 17-4 33 47 30 35.5 77t-66.5 52v0zM609 357q-34-28-97.5-28t-96.5 28q-3 4-8 4t-9-4-4-9 4-9q41-35 114-35t114 35q4 4 4 9t-4 9-9 4-8-4v0zM625 512q-22-1-36.5-15t-14.5-36 14.5-36.5 36-14.5 36 14.5 14.5 36.5-14 36-36 15v0z" />
<glyph unicode="&#x4d;" glyph-name="M" d="M1020 279q-5 14-14.5 23t-21.5 15l-22 11q-72 39-111 96-11 16-20 34-3 9-0.5 13t6.5 7l46 30q30 21 43 45 9 18 10 37t-6 38q-10 26-32.5 40.5t-52.5 14.5q-12 0-25-2l-6-2q1 36-2 73-7 64-26 102.5t-43 64.5q-31 34-70 57-72 40-161 40t-160-40q-40-23-71-57-24-26-43-65t-26-102q-2-37-2-73l-6 2q-12 2-25 2-30 0-52.5-14.5t-32.5-41.5q-7-18-6-37t10-37q13-24 43-45l45-30q4-2 7-6.5t-1-14.5q-8-17-19-33-38-56-108-94-19-9-36-19.5t-25-31.5q-7-17-2.5-35t20.5-34q11-12 26-20 30-17 64-25 7-2 12.5-6.5t7.5-12.5 9.5-19 18.5-19q16-10 33.5-13t35.5-3.5 37.5-2.5 41.5-9q18-6 40-21 26-17 65-33.5t99-17.5q60 1 99.5 17.5t65.5 34.5q21 14 39 20 22 7 41.5 9t37.5 2.5 35.5 3.5 33.5 13q13 10 21 24 5 9 7.5 15.5t7.5 10.5 11 6q34 9 65 26 16 8 28 22v0q15 16 18.5 33t-2.5 34v0zM949 240q-33-16-56-21t-40-15q-13-10-13-25t-9-23q-13-8-48-7.5t-85-13.5q-38-16-77-41.5t-109-28.5q-70 3-108.5 28.5t-77.5 41.5q-49 14-84.5 14t-48.5 7q-9 8-9 23t-13 25q-17 10-40 15t-56 21q-19 12-15 19t13 11q115 62 151 127.5t34 76.5q1 8 0 15t-9 15q-11 9-37 26l-39 25q-17 12-24 24.5t-1 27.5q4 10 12.5 14.5t18.5 4.5q6 0 13-2 19-4 36-11t28-10q2-1 5-1 11 0 10 13-2 21-3 57t1 75q5 51 20 81.5t35 52.5q10 15 56 45t132 33q86-3 132-33t56-45q20-22 35-52.5t19-81.5q3-39 2-74.5t-3-57.5q-1-13 10-13 3 0 5 1 11 3 28 10t36 12q7 1 13 1 10 0 18.5-4.5t12.5-14.5q10-28-25-52l-39-25q-26-17-37-26-8-8-9-15t0-15q-2-11 34-76.5t151-127.5q9-3 13-10.5t-15-19.5v0z" />
<glyph unicode="&#x4e;" glyph-name="N" d="M1024 750q-7-149-209-409-209-271-354-271-89 0-151 165-58 223-96 345t-86 123q-11 0-80-48l-48 62q90 81 168.5 149t132.5 76q120 12 147-163 46-308 87.5-371t126.5 81q65 102 69 155 4 75-44.5 84.5t-99.5-13.5q75 247 288 240 157-5 149-205v0z" />
<glyph unicode="&#x52;" glyph-name="R" d="M179 512q0-7 4-52l5-52-9-109q-1-7-7-7t-7 7l-9 109 9 104q1 6 7 6t7-6v0zM213 585q-7-1-8-8l-8-169 8-109q1-8 8-8t8 8l9 109-9 169q-1 7-8 8v0zM254 623q-8 0-9-8l-7-208 7-109q1-7 8.5-7t8.5 7l9 109-9 208q-1 8-8 8v0zM12 469q-3 0-4-4l-7-57 7-56q1-4 4-4t4 4l9 56-9 57q-1 4-4 4v0zM50 504q-4 0-4-4l-10-92 10-90q0-4 3.5-4t4.5 4l12 90-12 92q-1 4-4 4v0zM90 522q-4 0-5-5l-9-109 9-105q1-5 5.5-5t4.5 5l11 105-11 109q0 5-5 5v0zM131 526q-5-1-6-6l-9-112 9-109q1-5 6-5t6 5l10 109-10 112q-1 5-6 6v0zM517 703q-3 2-7.5 2t-8.5-3.5-5-9.5l-5-284 5-103q1-6 5-10t9.5-4 9.5 4 4 10l7 103-7 284q-1 7-7 11v0zM474 679q-3 2-7 2t-7-2q-5-4-6-11v-3l-4-257q-1 3 0-13l4-93q1-4 4-8t9-4 9.5 3.5 3.5 9.5l6 104-5 261q-1 7-7 11v0zM296 643q-8-1-9-10l-7-225 7-108q1-8 9.5-8t9.5 8l8 108-8 225q-1 9-10 10v0zM899 542q-26 0-49-10-10 87-71 144t-150 59q-44 0-81-15-13-5-12-15v-400q1-12 13-14h350q53 1 88.5 36.5t37.5 88.5q-2 54-37.5 89.5t-88.5 36.5v0zM424 639q-11-1-12-13l-6-219 6-105q1-11 12-11t12 11l6 105-6 219q-1 12-12 13v0zM338 651q-4 0-7-3t-3-8l-6-232 6-107q2-10 11-10t10 10l7 107-7 232q-1 10-11 11v0zM381 646q-10-1-11-11l-6-227 6-106q1-11 11-10.5t11 10.5l7 106-7 227q-1 10-11 11v0z" />
<glyph unicode="&#x53;" glyph-name="S" d="M512 1024q-218-5-362.5-149.5t-149.5-362.5q5-218 149.5-362.5t362.5-149.5q218 5 362.5 149.5t149.5 362.5q-5 218-149.5 362.5t-362.5 149.5v0zM749 676q-7-68-25.5-180.5t-32.5-187.5q-5-29-14.5-40.5t-20.5-12.5q-22-1-41 11.5t-40 27.5q-32 21-57 38l-57 38q-35 25-24 42.5t35 39.5l72 68q59 55 69 70v4t-2 5q-5 3-11.5 1t-215.5-143q-31-21-55-20-15 0-37.5 6t-42.5 12q-25 8-40.5 14.5t-14.5 20 38 27.5q224 98 298 129 104 43 142 57t49 13q4 0 9.5-1.5t10.5-4.5q6-6 7.5-15t0.5-19v0z" />
<glyph unicode="&#x54;" glyph-name="T" d="M871 875q-73 73-165 111t-194 38q-216-5-359-148.5t-149-358.5q0-68 17.5-132t50.5-122l-72-263 269 71q56-31 117.5-46.5t125.5-15.5v0q215 5 360.5 148.5t151.5 358.5q-1 103-41 194.5t-112 164.5v0zM512 94q-57 0-111.5 15t-103.5 44l-15 9-160-42 43 156-10 16q-32 51-48.5 107.5t-16.5 117.5q5 178 124 297.5t298 123.5q85 0 161.5-31.5t136.5-92 94-137 34-161.5q-5-179-126-298t-300-124v0zM743 410q-12 7-43.5 22t-43.5 19q-8 4-15 3.5t-13.5-10.5-20.5-25l-19-24q-10-13-28-3-55 26-95.5 58t-76.5 93q-9 14 4 24.5t33 44.5q5 13-1 22l-39 94q-8 18-15.5 20.5t-13.5 1.5q-11 1-24 1-7 0-16-3.5t-18.5-12.5-26-34.5-17.5-71.5q2-48 23-85.5t28-45.5q6-13 63.5-78.5t153.5-113.5q59-25 91.5-31t60.5 0q21 3 48.5 20t37.5 40q7 23 8.5 39.5t-1.5 20.5q-5 7-24 15v0z" />
<glyph unicode="&#x57;" glyph-name="W" d="M919 721q1-14 0-27-1-220-153.5-403t-443.5-194q-89 0-170.5 24.5t-151.5 69.5q25-3 51-3 74 0 140 23.5t120 66.5q-70 2-122.5 42t-73.5 103q19-3 40-3 28 0 55 7-74 16-120.5 72t-47.5 134v3q42-24 94-27-42 29-67.5 74.5t-25.5 100.5q1 59 28 106 79-97 190.5-154.5t242.5-65.5q-5 24-5 48 2 89 61 148.5t149 61.5q46 0 85-17.5t68-48.5q72 14 133 51-12-37-35.5-66.5t-56.5-49.5q64 7 121 32-43-63-105-108v0z" />
<glyph unicode="&#x58;" glyph-name="X" d="M960 604q-66 0-128.5 20t-116.5 59v-358q-11-193-163-281t-325 0q-163 106-162.5 282t162.5 281q47 27 100 37.5t107 2.5v-179q-86 22-145.5-32.5t-44.5-142.5q24-86 101-110t145 32q23 22 35.5 50.5t13.5 59.5v699h176q-1-22 3-44v0q10-50 37.5-91.5t70.5-69.5q30-19 64-29.5t70-10.5v-175z" />
<glyph unicode="&#xf002;" glyph-name="i" d="M832 608q0-69-21-131t-59-114l254-254q18-19 18-45t-19-45-44.5-19-45.5 19l-253 253q-52-38-114-59t-132-21q-176 5-293.5 122t-121.5 294q4 177 121.5 294.5t293.5 121.5q177-4 294.5-121.5t121.5-294.5v0zM416 320q172 9 250 144t0 288q-40 68-105.5 105.5t-144.5 38.5q-171-9-249-144t0-288q40-67 105.5-105t143.5-39v0z" />
<glyph unicode="&#xf003;" glyph-name="n" d="M128 800q-14 0-23-9t-9-23v-44l345-283q32-26 71-26t71 26l345 283v44q0 14-9 23t-23 9h-768zM96 600v-344q0-14 9-23t23-9h768q14 0 23 9t9 23v344l-284-234q-60-47-132-47t-132 47l-284 234zM0 768q1 54 37.5 90.5t90.5 37.5h768q54-1 90.5-37.5t37.5-90.5v-512q-1-54-37.5-90.5t-90.5-37.5h-768q-54 1-90.5 37.5t-37.5 90.5v512z" />
<glyph unicode="&#xf005;" glyph-name="f" d="M568 974q-8 16-23 25.5t-33 9.5-33-9.5-23-25.5l-125-256-278-42q-18-2-31-13.5t-18.5-28.5-1.5-33.5 16-29.5l202-200-47-283q-3-17 3.5-33.5t21-27 32-11.5 33.5 7l249 133 249-133q16-8 33.5-7t32 12 21 27 3.5 33l-47 283 202 200q12 13 16 29.5t-1.5 33.5-18.5 28.5-31 13.5l-279 42-124 256z" />
<glyph unicode="&#xf00c;" glyph-name="h" d="M1003 857q21-23 21-52t-21-52l-585-585q-23-21-52-21t-52 21l-292 292q-21 23-21 52t21.5 51 51 22 51.5-21l241-241 534 534q22 21 51.5 21t51.5-21v0z" />
<glyph unicode="&#xf00d;" glyph-name="C" d="M994 849q30 32 30 72.5t-30 72.5q-32 30-73 30t-72-30l-337-337-337 337q-32 30-72.5 30t-72.5-30q-30-32-30-73t30-72l337-337-337-337q-30-32-30-72.5t30-72.5q32-30 73-30t72 30l337 337 337-337q32-30 72.5-30t72.5 30q30 32 30 73t-30 72l-337 337 337 337z" />
<glyph unicode="&#xf019;" glyph-name="e" d="M256 1024q-54-1-90.5-37.5t-37.5-90.5v-768q1-54 37.5-90.5t90.5-37.5h512q54 1 90.5 37.5t37.5 90.5v576h-256q-27 1-45 19t-19 45v256h-320zM640 1024v-256h256l-256 256zM560 560v-204l62 62q15 14 34 14t33.5-14.5 14.5-33.5-14-34l-144-144q-15-14-34-14t-34 14l-144 144q-14 15-14 34t14.5 33.5 33.5 14.5 34-14l62-62v204q0 20 13.5 33.5t34 13.5 34-13.5 14.5-33.5v0z" />
<glyph unicode="&#xf036;" glyph-name="o" d="M658 951q0-31-21-52t-52-21h-512q-31 0-51.5 21t-20.5 52 20.5 51.5 51.5 21.5h512q31-1 52-21.5t21-51.5v0zM658 366q0-31-21-52t-52-21h-512q-31 0-51.5 21t-20.5 52 20.5 51.5 51.5 21.5h512q31-1 52-21.5t21-51.5v0zM0 658q1 31 21.5 52t51.5 21h878q31 0 51.5-21t20.5-52-20.5-51.5-51.5-21.5h-878q-31 1-51.5 21.5t-21.5 51.5v0zM1024 73q-1-31-21.5-51.5t-51.5-21.5h-878q-31 1-51.5 21.5t-20.5 51.5 20.5 52 51.5 21h878q31 0 51.5-21t21.5-52v0z" />
<glyph unicode="&#xf040;" glyph-name="u" d="M822 561q1 2 11 12l12 11-261 260-466-467q-32-31-45-74l-71-241q-3-13 0-25.5t12.5-22 22-13 25.5 0.5l241 71q43 13 75 44l444 444zM321 224q-1-3-9-22l-9-23q-13-9-27-14l-157-46 46 156q5 15 14 27l46 18v-64q0-13 9-22.5t23-9.5h64zM727 986q-2-1-15-14l-82-82 260-260 97 96q37 40 37 91t-37 91l-79 78q-39 38-90.5 38t-90.5-38v0zM632 650l-144-144-145-144q-9-9-22-9t-22.5 9.5-9.5 22 9 22.5l288 288q10 10 23 10t22.5-9.5 9.5-22.5-9-23v0z" />
<glyph unicode="&#xf044;" glyph-name="r" d="M147 1024q-62-2-103.5-43t-42.5-103v-732q1-62 42.5-103t103.5-43h731q62 2 103.5 43t43.5 103v732q-2 62-43.5 103t-103.5 43h-731zM745 778l33-33q27-28 27-64.5t-27-64.5l-49-49-162 162 49 49q28 27 64.5 27t64.5-27v0zM275 437l240 240 162-162-240-240q-14-15-34-20l-138-34q-20-4-34 10t-10 34l34 138q5 19 20 34v0z" />
<glyph unicode="&#xf04b;" glyph-name="D" d="M240 1008q-26 15-55 15.5t-55.5-14-41-40-14.5-55.5v-804q0-31 14.5-56t41-40 55.5-14 55 16l658 402q25 16 39 40.5t14 53.5-14 53.5-39 40.5l-658 402z" />
<glyph unicode="&#xf04c;" glyph-name="E" d="M214 1024q-55-1-91-37.5t-37-90.5v-768q1-54 37-90.5t91-37.5h85q54 1 90 37.5t38 90.5v768q-2 54-38 90.5t-90 37.5h-85zM726 1024q-55-1-91-37.5t-37-90.5v-768q1-54 37-90.5t91-37.5h85q54 1 90 37.5t38 90.5v768q-2 54-38 90.5t-90 37.5h-85z" />
<glyph unicode="&#xf053;" glyph-name="G" d="M241 564q-21-23-21-52t21-52l439-439q22-21 51.5-21t51.5 22 22 51-22 52l-387 387 387 387q21 23 21 52t-22 51-51 22-52-21l-438-439z" />
<glyph unicode="&#xf054;" glyph-name="F" d="M783 564q22-23 22-52t-22-52l-439-439q-22-21-51.5-21t-51 22-21.5 51 21 52l387 387-387 387q-21 23-21 52t22 51 51 22 52-21l438-439z" />
<glyph unicode="&#xf067;" glyph-name="A" d="M591 945q-1 34-23 56t-56 22-56-22-23-56v-354h-354q-34-1-56-23t-22-56 22-56 56-23h354v-354q1-34 23-56t56-22 56 22 23 56v354h354q34 1 56 23t22 56-22 56-56 23h-354v354z" />
<glyph unicode="&#xf071;" glyph-name="g" d="M512 960q22 0 40-10.5t29-29.5l432-736q11-19 11-40t-11-40-29-29.5-40-10.5h-864q-22 0-40 10.5t-29 29.5-11 40.5 11 39.5l432 736q11 19 29 29.5t40 10.5v0zM512 704q-20 0-34-13.5t-14-34.5v-224q0-20 14-33.5t34-13.5 33.5 13.5 14.5 33.5v224q-1 21-14.5 34.5t-33.5 13.5v0zM576 256q-2 38-32 55.5t-64-0.5q-15-8-23.5-23t-8.5-32q2-38 32-55.5t64 0.5q15 8 23.5 23t8.5 32v0z" />
<glyph unicode="&#xf07a;" glyph-name="B" d="M0 928q0 18 12.5 30.5t30.5 12.5h82q30 0 54-15.5t36-41.5h737q37-2 57.5-28.5t11.5-62.5l-73-273q-12-43-46-69t-79-26h-517l10-51q3-16 14.5-25.5t27.5-9.5h517q18-1 30.5-13t12.5-30.5-12.5-30.5-30.5-12h-517q-48 0-82.5 29t-44.5 76l-92 485q-3 11-14 12h-82q-18 1-30.5 13t-12.5 30v0zM230 139q2 51 42.5 74.5t86.5 0.5q20-12 31-31.5t12-43.5q-3-51-43.5-74.5t-85.5 0.5q-21 12-32 31.5t-11 42.5v0zM832 225q51-2 74.5-42.5t-0.5-86.5q-11-20-31-31.5t-43-11.5q-51 3-74.5 43.5t-0.5 85.5q12 20 32 31.5t43 11.5v0z" />
<glyph unicode="&#xf095;" glyph-name="d" d="M330 975q-12 29-38.5 41.5t-56.5 5.5l-176-48q-26-8-42-29t-16-49q9-380 262-633t633-262q28 0 49 16t29 42l48 176q7 30-5.5 56.5t-41.5 38.5l-192 80q-25 10-50 4t-42-27l-81-99q-106 51-188.5 133.5t-133.5 188.5l99 80q21 18 27 43t-4 50z" />
<glyph unicode="&#xf099;" glyph-name="b" d="M806 975h157l-343-392 404-533h-316l-248 323-283-323h-157l367 419-387 506h324l224-296 258 296zM751 143h87l-561 743h-94l568-743z" />
<glyph unicode="&#xf09a;" glyph-name="H" d="M751 448q1 12 14 93l14 92h-178v121q-1 39 22.5 68.5t82.5 31.5h80v157q-2 1-45 6.5t-98 6.5q-111-1-176-64.5t-66-184.5v-142h-163v-185h163v-448h200v448h150z" />
<glyph unicode="&#xf09d;" glyph-name="m" d="M910 825q12 0 20-8t9-20v-57h-854v57q1 12 9 20t20 8h796zM939 569v-341q-1-12-9-20t-20-9h-796q-12 1-20 9t-9 20v341h854zM114 910q-49-1-81-33t-33-80v-569q1-49 33-81t81-33h796q49 1 81 33t33 81v569q-1 48-33 80t-81 33h-796zM213 370q-18 0-30-12t-12-30.5 12-30.5 30-12h86q18 0 30 12t12 30.5-12 30.5-30 12h-86zM441 370q-18 0-30-12t-12-30.5 12-30.5 30-12h199q18 0 30 12t12 30.5-12 30.5-30 12h-199z" />
<glyph unicode="&#xf09e;" glyph-name="c" d="M1 951q0 31 20.5 51.5t52.5 21.5q404-10 672-278.5t278-672.5q-1-31-21.5-51.5t-51.5-20.5-51.5 20.5-21.5 51.5q-9 342-236 569t-568 236q-32 1-52.5 21.5t-20.5 51.5v0zM1 146q4 88 72.5 127.5t146.5-0.5q34-20 53.5-53.5t19.5-73.5q-5-87-73.5-126.5t-145.5 0.5q-35 20-54 53.5t-19 72.5v0zM74 731q279-7 465-192.5t193-465.5q-1-31-21.5-51.5t-51.5-20.5-52 20.5-21 51.5q-6 218-150.5 362.5t-361.5 149.5q-32 1-52.5 21.5t-20.5 51.5 20.5 52 52.5 21v0z" />
<glyph unicode="&#xf0d2;" glyph-name="J" d="M537 1025q-164-2-288-99t-130-269q3-109 46.5-167.5t83.5-58.5q15 3 23.5 30t8.5 42q-3 14-24.5 47t-24.5 92q3 126 83.5 203t204.5 79q107 0 174-57.5t70-167.5q1-91-40-197.5t-146-115.5q-39 0-66 24.5t-29 64.5q4 58 27.5 115.5t27.5 117.5q-12 101-96.5 86t-96.5-139q0-26 4-53t16-51l-54-213q-30-118-32-216 0-29 3-58l6-58q4-5 5.5-5.5t8.5 2.5q73 98 94.5 161t51.5 194q21-36 61.5-55t81.5-19q162 7 239 130t76 274q-5 155-112 245t-257 92v0z" />
<glyph unicode="&#xf0d7;" glyph-name="v" d="M440 235q32-30 73-30t72 30l410 409q22 23 27.5 53t-6.5 59-37 46-57 17h-819q-31 0-56.5-17t-37.5-46.5-6.5-59 27.5-52.5l410-409z" />
<glyph unicode="&#xf0e0;" glyph-name="l" d="M96 896q-41-1-68-28t-28-68q0-23 10-43t28-34l436-326q17-13 38-13t38 13l436 326q18 14 28 34t10 43q-1 41-28 68t-68 28h-832zM0 672v-416q1-54 37.5-90.5t90.5-37.5h768q54 1 90.5 37.5t37.5 90.5v416l-435-326q-35-26-77-26t-77 26l-435 326z" />
<glyph unicode="&#xf0e1;" glyph-name="K" d="M230 1h-213v683h213v-683zM123 777q-52 2-86.5 37t-35.5 87q3 74 61 107t123 0q29-17 45-45t16-62q-1-52-35.5-87t-87.5-37v0zM1024 1h-212v332q4 64-14 120.5t-96 60.5q-80-2-105-54t-22-121v-338h-212v683h203v-93h3q22 42 72.5 75t128.5 35q157-3 208-93.5t46-231.5v-375z" />
<glyph unicode="&#xf0f6;" glyph-name="s" d="M256 96q-14 0-23 9t-9 23v768q0 14 9 23t23 9h320v-160q1-27 19-45t45-19h160v-576q0-14-9-23t-23-9h-512zM256 1024q-54-1-90.5-37.5t-37.5-90.5v-768q1-54 37.5-90.5t90.5-37.5h512q54 1 90.5 37.5t37.5 90.5v587q0 26-9.5 49t-27.5 42l-182 181q-18 18-41 27.5t-49 9.5h-331zM368 512q-20-1-33.5-14.5t-13.5-33.5 13.5-33.5 33.5-14.5h288q20 1 33.5 14.5t13.5 33.5-13.5 33.5-33.5 14.5h-288zM368 320q-20-1-33.5-14.5t-13.5-33.5 13.5-33.5 33.5-14.5h288q20 1 33.5 14.5t13.5 33.5-13.5 33.5-33.5 14.5h-288z" />
<glyph unicode="&#xf101;" glyph-name="k" d="M1001 457q23 24 23 55.5t-23 55.5l-394 394q-24 23-55.5 23t-55-23.5-23.5-55 23-56.5l338-338-338-338q-23-24-23-55.5t23.5-55 55-23.5 55.5 23l394 393v1zM135 63q24 24 196 197l197 197q23 24 23 55.5t-23 55.5l-393 394q-25 23-56.5 23t-55-23.5-23.5-55 23-56.5l338-338-338-338q-23-24-23-55.5t24-55 55.5-23.5 55.5 23v0z" />
<glyph unicode="&#xf106;" glyph-name="t" d="M460 783q23 22 52 22t52-22l439-439q21-22 21-51.5t-22-51-51-21.5-52 21l-387 387-387-387q-23-21-52-21t-51 22-22 51 21 52l439 438z" />
<glyph unicode="&#xf107;" glyph-name="j" d="M460 241q23-21 52-21t52 21l439 439q21 22 21 51.5t-22 51.5-51 22-52-22l-387-387-387 387q-23 21-52 21t-51-22-22-51 21-52l439-438z" />
<glyph unicode="&#xf10d;" glyph-name="q" d="M1 604q2 116 79.5 193.5t194.5 80.5h18q31-1 51.5-21.5t20.5-51.5-20.5-52-51.5-21h-18q-55-2-91-38t-37-90v-19h146q62-1 103.5-42.5t42.5-103.5v-146q-1-62-42.5-103.5t-103.5-42.5h-146q-62 1-103.5 42.5t-42.5 103.5v311zM586 604q3 116 80 193.5t194 80.5h18q31-1 52-21.5t21-51.5-21-52-52-21h-18q-54-2-90.5-38t-37.5-90v-19h146q62-1 103.5-42.5t43.5-103.5v-146q-2-62-43.5-103.5t-103.5-42.5h-146q-62 1-103.5 42.5t-42.5 103.5v311z" />
<glyph unicode="&#xf111;" glyph-name="p" d="M513 1q304 16 442.5 255.5t-0.5 511.5q-70 120-187 187t-255 68q-305-16-443.5-255.5t0.5-510.5q70-120 187-187.5t256-68.5v0z" />
<glyph unicode="&#xf124;" glyph-name="x" d="M1019 916q8 22 3.5 45t-21.5 40-40 22-45-4l-867-355q-26-11-39-35.5t-7.5-52.5 26.5-45.5 50-17.5h433v-434q1-29 18.5-50t45.5-26.5 52.5 7.5 35.5 40l355 866z" />
<glyph unicode="&#xf133;" glyph-name="y" d="M368 976q-1 20-14.5 33.5t-33.5 13.5-33.5-13.5-14.5-33.5v-80h-80q-54-1-90.5-37.5t-37.5-90.5v-640q1-54 37.5-90.5t90.5-37.5h640q54 1 90.5 37.5t37.5 90.5v640q-1 54-37.5 90.5t-90.5 37.5h-80v80q-1 20-14.5 33.5t-33.5 13.5-33.5-13.5-14.5-33.5v-80h-288v80zM160 640h704v-512q0-14-9-23t-23-9h-640q-14 0-23 9t-9 23v512z" />
<glyph unicode="&#xf167;" glyph-name="Z" d="M1003 760q-10 34-33.5 58t-57.5 33q-77 15-229.5 18.5t-170.5 3.5-170.5-3.5-229.5-18.5q-34-9-57.5-33t-33.5-58q-15-68-18.5-154t-3.5-94 3.5-94 18.5-154q10-34 33.5-57.5t57.5-32.5q77-15 229.5-18.5t170.5-3.5 170.5 3.5 229.5 18.5q34 9 57.5 32.5t33.5 57.5q15 68 18.5 154t3.5 94-3.5 94-18.5 154v0zM407 360v304l268-152-268-152z" />
<glyph unicode="&#xf168;" glyph-name="P" d="M445 617q-6-11-160-282-17-28-40-29h-149q-14 1-19.5 11t-0.5 22l158 278q1 0 0 0l-100 173q-7 14-1 23t20 9h149q25 0 41-28l102-177zM948 992q-21-36-165-289l-164-289v-1l209-381q7-12 1.5-22t-20.5-10h-149q-26 0-42 28l-211 385 331 583q16 28 40 28h150q14 0 20-9.5t0-22.5v0z" />
<glyph unicode="&#xf16b;" glyph-name="U" d="M513 783q-16-10-128-81l-128-82 256-164-256-163-257 165 257 163-257 162 257 164 256-164zM255 241q16 11 128 82l128 82 256-164-256-163-256 163zM513 458q16 10 128 82l128 81-256 163 254 163 257-164-257-163 257-163-257-164-254 165z" />
<glyph unicode="&#xf16d;" glyph-name="a" d="M513 775q-112-3-186-77t-77-186q3-111 77-185t186-77q111 3 185 77t77 185q-3 112-77 186t-185 77v0zM513 342q-73 2-121 50t-50 120q2 73 50 121t121 50q72-2 120-50t50-121q-2-72-50-120t-120-50v0zM847 786q-1-27-18-44t-43-17-43.5 17.5-17.5 43.5 17.5 43 43.5 17 43-17 18-43v0zM1021 723q-2 62-20.5 116t-63 98.5-98.5 62.5-115 21q-74 3-211.5 3t-211.5-3q-61-2-115-20.5t-98.5-63-63-98.5-20.5-115q-3-74-3-211.5t3-211.5q2-61 20.5-115t63-98.5 98.5-63 115-20.5q74-3 211.5-3t211.5 3q61 2 115 20.5t98.5 63 63 98.5 20.5 115q3 74 3 211.5t-3 210.5v0zM912 211q-14-34-39-59t-59-39q-56-19-148-20t-153 0q-62-1-154 0.5t-148 19.5q-34 14-59 39t-38 59q-19 56-20.5 148t-0.5 153q-1 62 0.5 154t20.5 148q13 34 38 59t59 38q56 19 148 20.5t154 0.5q61 1 153-0.5t148-20.5q34-13 59-38t39-59q19-56 20-148t0-154q1-61 0-153t-20-148v0z" />
<glyph unicode="&#xf176;" glyph-name="z" d="M557 1005q-19 19-45 19t-45-19l-256-256q-19-19-19-45t19-45 45-19 45 19l147 146v-741q1-27 19-45t45-18 45 18 19 45v741l147-146q20-19 45.5-19t44.5 19 19 45-18 45z" />
<glyph unicode="&#xf189;" glyph-name="O" d="M72 952q-52-52-63-150t-9-270v-40q-2-172 9-270t63-150 150-63 270-9h40q172-2 270 9t150 63 63 150 9 270v40q2 172-9 270t-63 150-150 63-270 9h-40q-172 2-270-9t-150-63v0zM173 713h117q6-146 55-215t103-81v296h110v-169q52 7 97.5 55t64.5 114h110q-13-67-52.5-122.5t-96.5-90.5q64-32 110-88t65-126h-121q-18 61-66 102.5t-111 50.5v-153h-13q-176 2-271.5 113.5t-100.5 313.5v0z" />
<glyph unicode="&#xf1ea;" glyph-name="newspaper" d="M512 672h-192v-192h192zM576 352v-64h-320v64zM576 736v-320h-320v320zM896 352v-64h-256v64zM896 480v-64h-256v64zM896 608v-64h-256v64zM896 736v-64h-256v64zM128 256v480h-64v-480c0-8.666 3.167-16.166 9.5-22.5s13.833-9.5 22.5-9.5 16.167 3.166 22.5 9.5 9.5 13.834 9.5 22.5zM960 256v544h-768v-544c0-11-1.833-21.666-5.5-32h741.5c8.666 0 16.166 3.166 22.5 9.5s9.5 13.834 9.5 22.5zM1024 864v-608c0-26.666-9.334-49.334-28-68s-41.334-28-68-28h-832c-26.667 0-49.333 9.334-68 28s-28 41.334-28 68v544h128v64z" />
<glyph unicode="&#xf1ed;" glyph-name="Y" d="M330 422q-7-42-23-146l-25-157q-1-5-7-5h-168q-14 0-21.5 9t-6.5 22l133 840q3 17 15.5 27.5t29.5 10.5q246 2 326 0t134-26q100-41 119-126t-19-190.5-119.5-154.5-197.5-49q-73 2-116.5-1.5t-53.5-53.5v0zM885 747q-3 2-4.5 2t-2.5-5q-7-38-20-76-76-183-218.5-213.5t-242.5-20.5q-22-1-25-22l-50-310q-12-79-11-73-2-12 5-20.5t19-8.5h143q15 0 25.5 9.5t14.5 24.5l32 206q8 35 24.5 40.5t41.5 3.5q122-2 207.5 56t115.5 198q12 60 2.5 116t-56.5 93v0z" />
</font>
</defs>
</svg>
